<mxfile host="app.diagrams.net" agent="Mozilla/5.0 (Windows NT 10.0; Win64; x64) AppleWebKit/537.36 (KHTML, like Gecko) Chrome/131.0.0.0 Safari/537.36" version="26.0.4">
  <diagram name="Page-1" id="c7558073-3199-34d8-9f00-42111426c3f3">
    <mxGraphModel dx="1195" dy="622" grid="1" gridSize="10" guides="1" tooltips="1" connect="1" arrows="1" fold="1" page="1" pageScale="1" pageWidth="826" pageHeight="1169" background="none" math="0" shadow="0">
      <root>
        <mxCell id="0" />
        <mxCell id="1" parent="0" />
        <mxCell id="2" value="&lt;p style=&quot;margin: 4px 0px 0px; text-decoration: underline;&quot;&gt;&lt;span style=&quot;background-color: transparent;&quot;&gt;&lt;font style=&quot;font-size: 27px;&quot;&gt;User&lt;/font&gt;&lt;/span&gt;&lt;/p&gt;" style="verticalAlign=middle;align=center;overflow=fill;fontSize=12;fontFamily=Helvetica;html=1;rounded=1;fontStyle=1;strokeWidth=3;fillColor=#E6FFCC;fontColor=#CC0066;" parent="1" vertex="1">
          <mxGeometry x="343.5" y="260" width="110" height="44" as="geometry" />
        </mxCell>
        <mxCell id="5" value="" style="shape=process;whiteSpace=wrap;align=center;verticalAlign=middle;size=0.5;fontStyle=1;strokeWidth=3;fillColor=#FFCCCC" parent="1" vertex="1">
          <mxGeometry x="198.49999999999991" y="391" width="400" height="50" as="geometry" />
        </mxCell>
        <mxCell id="54" value="Transfer ICP" style="text;spacingTop=-5;align=center" parent="1" vertex="1">
          <mxGeometry x="275" y="355" width="81" height="36" as="geometry" />
        </mxCell>
        <mxCell id="55" value="" style="edgeStyle=elbowEdgeStyle;elbow=horizontal;strokeColor=#990000;strokeWidth=2;entryX=1;entryY=0.5;entryDx=0;entryDy=0;" parent="1" target="2" edge="1">
          <mxGeometry width="100" height="100" relative="1" as="geometry">
            <mxPoint x="540" y="391" as="sourcePoint" />
            <mxPoint x="520" y="260" as="targetPoint" />
            <Array as="points">
              <mxPoint x="540" y="320" />
            </Array>
          </mxGeometry>
        </mxCell>
        <mxCell id="HYM0AllSIf4Eytp4_clg-121" value="0.5-2 s" style="edgeLabel;html=1;align=center;verticalAlign=middle;resizable=0;points=[];" vertex="1" connectable="0" parent="55">
          <mxGeometry x="-0.3964" y="-1" relative="1" as="geometry">
            <mxPoint as="offset" />
          </mxGeometry>
        </mxCell>
        <mxCell id="56" value="" style="edgeStyle=elbowEdgeStyle;elbow=horizontal;strokeColor=#990000;strokeWidth=2;exitX=0;exitY=0.5;exitDx=0;exitDy=0;" parent="1" source="2" edge="1">
          <mxGeometry width="100" height="100" relative="1" as="geometry">
            <mxPoint x="356" y="252" as="sourcePoint" />
            <mxPoint x="276.5" y="391" as="targetPoint" />
            <Array as="points">
              <mxPoint x="276.5" y="331" />
            </Array>
          </mxGeometry>
        </mxCell>
        <mxCell id="HYM0AllSIf4Eytp4_clg-120" value="0.5-2 s" style="edgeLabel;html=1;align=center;verticalAlign=middle;resizable=0;points=[];" vertex="1" connectable="0" parent="56">
          <mxGeometry x="0.1818" y="1" relative="1" as="geometry">
            <mxPoint as="offset" />
          </mxGeometry>
        </mxCell>
        <mxCell id="HYM0AllSIf4Eytp4_clg-97" value="&lt;font style=&quot;font-size: 20px;&quot;&gt;ICP&lt;/font&gt;" style="text;strokeColor=none;align=center;fillColor=none;html=1;verticalAlign=middle;whiteSpace=wrap;rounded=0;" vertex="1" parent="1">
          <mxGeometry x="256" y="401" width="60" height="30" as="geometry" />
        </mxCell>
        <mxCell id="HYM0AllSIf4Eytp4_clg-98" value="&lt;font style=&quot;font-size: 20px;&quot;&gt;ICS&lt;/font&gt;" style="text;strokeColor=none;align=center;fillColor=none;html=1;verticalAlign=middle;whiteSpace=wrap;rounded=0;" vertex="1" parent="1">
          <mxGeometry x="470" y="401" width="60" height="30" as="geometry" />
        </mxCell>
        <mxCell id="HYM0AllSIf4Eytp4_clg-102" value="Transfer ICS" style="text;spacingTop=-5;align=center" vertex="1" parent="1">
          <mxGeometry x="486" y="355" width="30" height="20" as="geometry" />
        </mxCell>
        <mxCell id="HYM0AllSIf4Eytp4_clg-104" value="&lt;p data-pm-slice=&quot;1 1 []&quot;&gt;Flash Swap Canister&lt;br&gt;&lt;span style=&quot;background-color: transparent; color: light-dark(rgb(0, 0, 0), rgb(255, 255, 255));&quot;&gt;Risk-free Pool&lt;br&gt;&lt;/span&gt;&lt;span style=&quot;background-color: transparent; color: light-dark(rgb(0, 0, 0), rgb(255, 255, 255));&quot;&gt;fee: +0.1%&lt;/span&gt;&lt;span style=&quot;background-color: transparent; color: light-dark(rgb(0, 0, 0), rgb(255, 255, 255));&quot;&gt;&lt;/span&gt;&lt;/p&gt;" style="text;html=1;align=center;verticalAlign=middle;resizable=0;points=[];autosize=1;strokeColor=#d6b656;fillColor=#fff2cc;fontFamily=Helvetica;fontSize=12;fontStyle=1;" vertex="1" parent="1">
          <mxGeometry x="60" y="376" width="130" height="80" as="geometry" />
        </mxCell>
        <mxCell id="HYM0AllSIf4Eytp4_clg-106" value="" style="shape=process;whiteSpace=wrap;align=center;verticalAlign=middle;size=0.5;fontStyle=1;strokeWidth=3;fillColor=#d5e8d4;strokeColor=#82b366;" vertex="1" parent="1">
          <mxGeometry x="198.49999999999991" y="620" width="400" height="50" as="geometry" />
        </mxCell>
        <mxCell id="HYM0AllSIf4Eytp4_clg-107" value="&lt;font style=&quot;font-size: 20px;&quot;&gt;ICP&lt;/font&gt;" style="text;strokeColor=none;align=center;fillColor=none;html=1;verticalAlign=middle;whiteSpace=wrap;rounded=0;" vertex="1" parent="1">
          <mxGeometry x="256" y="630" width="60" height="30" as="geometry" />
        </mxCell>
        <mxCell id="HYM0AllSIf4Eytp4_clg-108" value="&lt;font style=&quot;font-size: 20px;&quot;&gt;ICS&lt;/font&gt;" style="text;strokeColor=none;align=center;fillColor=none;html=1;verticalAlign=middle;whiteSpace=wrap;rounded=0;" vertex="1" parent="1">
          <mxGeometry x="470" y="630" width="60" height="30" as="geometry" />
        </mxCell>
        <mxCell id="HYM0AllSIf4Eytp4_clg-109" value="Swap Pool&lt;br&gt;fee: 0.3%" style="text;html=1;align=center;verticalAlign=middle;resizable=0;points=[];autosize=1;strokeColor=#d6b656;fillColor=#fff2cc;fontFamily=Helvetica;fontSize=12;fontStyle=1;" vertex="1" parent="1">
          <mxGeometry x="80" y="620" width="80" height="40" as="geometry" />
        </mxCell>
        <mxCell id="HYM0AllSIf4Eytp4_clg-110" style="edgeStyle=orthogonalEdgeStyle;rounded=1;orthogonalLoop=1;jettySize=auto;html=1;strokeColor=#B3FF66;strokeWidth=2;align=center;verticalAlign=middle;fontFamily=Helvetica;fontSize=11;fontColor=default;labelBackgroundColor=default;elbow=horizontal;endArrow=classic;entryX=0.059;entryY=0.04;entryDx=0;entryDy=0;entryPerimeter=0;" edge="1" parent="1" source="5" target="HYM0AllSIf4Eytp4_clg-106">
          <mxGeometry relative="1" as="geometry">
            <mxPoint x="250" y="580" as="targetPoint" />
            <Array as="points">
              <mxPoint x="222" y="520" />
              <mxPoint x="222" y="520" />
            </Array>
          </mxGeometry>
        </mxCell>
        <mxCell id="HYM0AllSIf4Eytp4_clg-122" value="2-4s" style="edgeLabel;html=1;align=center;verticalAlign=middle;resizable=0;points=[];rounded=1;strokeColor=#B3FF66;strokeWidth=2;fontFamily=Helvetica;fontSize=11;fontColor=default;labelBackgroundColor=default;" vertex="1" connectable="0" parent="HYM0AllSIf4Eytp4_clg-110">
          <mxGeometry x="0.0387" y="1" relative="1" as="geometry">
            <mxPoint as="offset" />
          </mxGeometry>
        </mxCell>
        <mxCell id="HYM0AllSIf4Eytp4_clg-111" style="edgeStyle=orthogonalEdgeStyle;rounded=1;orthogonalLoop=1;jettySize=auto;html=1;entryX=0.929;entryY=1.04;entryDx=0;entryDy=0;entryPerimeter=0;strokeColor=#B3FF66;strokeWidth=2;align=center;verticalAlign=middle;fontFamily=Helvetica;fontSize=11;fontColor=default;labelBackgroundColor=default;elbow=horizontal;endArrow=classic;" edge="1" parent="1" source="HYM0AllSIf4Eytp4_clg-106" target="5">
          <mxGeometry relative="1" as="geometry">
            <Array as="points">
              <mxPoint x="570" y="530" />
              <mxPoint x="570" y="530" />
            </Array>
          </mxGeometry>
        </mxCell>
        <mxCell id="HYM0AllSIf4Eytp4_clg-123" value="2-4s" style="edgeLabel;html=1;align=center;verticalAlign=middle;resizable=0;points=[];" vertex="1" connectable="0" parent="HYM0AllSIf4Eytp4_clg-111">
          <mxGeometry x="-0.1525" y="1" relative="1" as="geometry">
            <mxPoint as="offset" />
          </mxGeometry>
        </mxCell>
        <mxCell id="HYM0AllSIf4Eytp4_clg-112" value="Deposit ICP" style="text;spacingTop=-5;align=center" vertex="1" parent="1">
          <mxGeometry x="222.5" y="492" width="81" height="36" as="geometry" />
        </mxCell>
        <mxCell id="HYM0AllSIf4Eytp4_clg-113" value="Withdraw ICS" style="text;spacingTop=-5;align=center" vertex="1" parent="1">
          <mxGeometry x="486" y="490" width="81" height="36" as="geometry" />
        </mxCell>
        <mxCell id="HYM0AllSIf4Eytp4_clg-115" value="" style="edgeStyle=orthogonalEdgeStyle;strokeColor=#B3FF66;strokeWidth=2;exitX=0.124;exitY=0.02;exitDx=0;exitDy=0;exitPerimeter=0;entryX=0.834;entryY=-0.04;entryDx=0;entryDy=0;entryPerimeter=0;rounded=1;align=center;verticalAlign=middle;fontFamily=Helvetica;fontSize=11;fontColor=default;labelBackgroundColor=default;elbow=horizontal;endArrow=classic;" edge="1" parent="1" source="HYM0AllSIf4Eytp4_clg-106" target="HYM0AllSIf4Eytp4_clg-106">
          <mxGeometry width="100" height="100" relative="1" as="geometry">
            <mxPoint x="220" y="590" as="sourcePoint" />
            <mxPoint x="500" y="590" as="targetPoint" />
            <Array as="points">
              <mxPoint x="248" y="570" />
              <mxPoint x="532" y="570" />
            </Array>
          </mxGeometry>
        </mxCell>
        <mxCell id="HYM0AllSIf4Eytp4_clg-117" value="Swap ICP to ICS" style="edgeLabel;html=1;align=center;verticalAlign=middle;resizable=0;points=[];rounded=1;strokeColor=#B3FF66;strokeWidth=2;fontFamily=Helvetica;fontSize=11;fontColor=default;labelBackgroundColor=default;" vertex="1" connectable="0" parent="HYM0AllSIf4Eytp4_clg-115">
          <mxGeometry x="0.023" relative="1" as="geometry">
            <mxPoint as="offset" />
          </mxGeometry>
        </mxCell>
        <mxCell id="HYM0AllSIf4Eytp4_clg-125" value="2-4s" style="edgeLabel;html=1;align=center;verticalAlign=middle;resizable=0;points=[];" vertex="1" connectable="0" parent="HYM0AllSIf4Eytp4_clg-115">
          <mxGeometry x="0.3467" y="-1" relative="1" as="geometry">
            <mxPoint x="15" as="offset" />
          </mxGeometry>
        </mxCell>
        <mxCell id="HYM0AllSIf4Eytp4_clg-124" value="User: complete in &lt;b&gt;1-4s&lt;/b&gt;" style="text;html=1;align=center;verticalAlign=middle;resizable=0;points=[];autosize=1;strokeColor=none;fillColor=none;fontColor=light-dark(#24c675, #28ab6a);" vertex="1" parent="1">
          <mxGeometry x="640" y="330" width="140" height="30" as="geometry" />
        </mxCell>
        <mxCell id="HYM0AllSIf4Eytp4_clg-126" value="Contract completes the rest in &lt;b&gt;6–12s&lt;/b&gt;" style="text;html=1;align=center;verticalAlign=middle;resizable=0;points=[];autosize=1;strokeColor=none;fillColor=none;fontColor=light-dark(#24c675, #28ab6a);" vertex="1" parent="1">
          <mxGeometry x="593.5" y="526" width="220" height="30" as="geometry" />
        </mxCell>
        <mxCell id="HYM0AllSIf4Eytp4_clg-127" value="&lt;font style=&quot;font-size: 22px;&quot;&gt;Flash Swap Model&lt;/font&gt;&lt;div&gt;ICPswap&lt;/div&gt;" style="whiteSpace=wrap;html=1;fillColor=#ffe6cc;strokeColor=#d79b00;fontStyle=1" vertex="1" parent="1">
          <mxGeometry x="303.5" y="150" width="200" height="60" as="geometry" />
        </mxCell>
        <mxCell id="HYM0AllSIf4Eytp4_clg-128" value="By Dalio&lt;br&gt;01/09/2025" style="text;html=1;align=left;verticalAlign=middle;resizable=0;points=[];autosize=1;strokeColor=none;fillColor=none;" vertex="1" parent="1">
          <mxGeometry x="540" y="690" width="80" height="40" as="geometry" />
        </mxCell>
        <mxCell id="HYM0AllSIf4Eytp4_clg-129" value="Add a new canister for flash swap mode, &lt;br&gt;and also a risk-free profit pool like Lend" style="text;html=1;align=center;verticalAlign=middle;resizable=0;points=[];autosize=1;strokeColor=none;fillColor=none;" vertex="1" parent="1">
          <mxGeometry x="5" y="320" width="240" height="40" as="geometry" />
        </mxCell>
        <mxCell id="HYM0AllSIf4Eytp4_clg-130" value="Main : Sub = 50% : 50%" style="text;html=1;align=center;verticalAlign=middle;resizable=0;points=[];autosize=1;strokeColor=none;fillColor=none;fontColor=light-dark(#837777, #ededed);" vertex="1" parent="1">
          <mxGeometry x="320" y="401" width="150" height="30" as="geometry" />
        </mxCell>
      </root>
    </mxGraphModel>
  </diagram>
</mxfile>
